Coordinates
version=1
nRows=38
nColumns=38
inDegrees=no

Units are S.I. units (second, meters, Newtons, ...)
If the header above contains a line with 'inDegrees', this indicates whether rotational values are in degrees (yes) or radians (no).

endheader
time	pelvis_tilt	pelvis_list	pelvis_rotation	pelvis_tx	pelvis_ty	pelvis_tz	hip_flexion_r	hip_adduction_r	hip_rotation_r	knee_angle_r	ankle_angle_r	subtalar_angle_r	mtp_angle_r	hip_flexion_l	hip_adduction_l	hip_rotation_l	knee_angle_l	ankle_angle_l	subtalar_angle_l	mtp_angle_l	lumbar_extension	lumbar_bending	lumbar_rotation	arm_flex_r	arm_add_r	arm_rot_r	elbow_flex_r	pro_sup_r	wrist_flex_r	wrist_dev_r	arm_flex_l	arm_add_l	arm_rot_l	elbow_flex_l	pro_sup_l	wrist_flex_l	wrist_dev_l
120	2.48484	1.20956	-0.69254	-0.931543	0.249275	0.888193	0.0905521	0.427458	-0.0599364	0.363687	-0.230602	0	0	-0.327479	-0.201339	-0.0739774	0	0.397384	0	0	-0.30559	0.473151	0.0111378	-0.16746	-0.551061	0.366613	0.983497	1.09406	0	0	0.199547	-0.963203	1.5708	1.29253	0.953388	0	0
120.01	2.55099	1.18399	-0.744755	-0.935095	0.253184	0.890121	0.0635276	0.426993	-0.0736315	0.392628	-0.222544	0	0	-0.14709	0.472153	-0.698132	0.173184	0.397384	0	0	-0.360018	0.497605	0.00501758	0.252761	-0.8086	1.31395	1.08319	0.257128	0	0	0.521959	-0.68177	1.5708	1.27782	0.953388	0	0
120.02	2.51928	1.19654	-0.705057	-0.935669	0.261124	0.890181	0.0785354	0.429791	-0.0550163	0.395793	-0.222259	0	0	-0.143246	0.470176	-0.698132	0.17748	0.397384	0	0	-0.344919	0.496518	0.00458572	0.222629	-0.805302	1.27108	1.07827	0.265666	0	0	0.51999	-0.684597	1.5708	1.27688	0.953388	0	0
120.03	2.48004	1.21626	-0.668677	-0.935887	0.271046	0.890672	0.101619	0.42429	-0.0508855	0.416525	-0.220332	0	0	-0.132213	0.475381	-0.698132	0.177932	0.397384	0	0	-0.32084	0.489183	0.00509395	0.196355	-0.798343	1.23928	1.06729	0.281753	0	0	0.50563	-0.684114	1.5708	1.27393	0.953388	0	0
120.04	2.47014	1.22709	-0.659063	-0.936475	0.280299	0.892072	0.104141	0.417114	-0.0540955	0.425327	-0.218072	0	0	-0.135379	0.479744	-0.698132	0.180378	0.397384	0	0	-0.312078	0.48127	-0.00397354	0.192275	-0.790425	1.23112	1.05861	0.29481	0	0	0.48792	-0.693575	1.5708	1.26958	0.953388	0	0
120.05	2.4831	1.23451	-0.670405	-0.937187	0.289383	0.894289	0.0922601	0.406981	-0.06462	0.423635	-0.215533	0	0	-0.14684	0.484482	-0.698132	0.184893	0.397384	0	0	-0.311427	0.470415	-0.0163821	0.194382	-0.780219	1.22833	1.048	0.30978	0	0	0.471864	-0.704845	1.5708	1.26277	0.953388	0	0
120.06	2.51613	1.23916	-0.700492	-0.937841	0.298335	0.897139	0.0690344	0.394691	-0.082551	0.414109	-0.213211	0	0	-0.163972	0.488317	-0.698132	0.196015	0.397384	0	0	-0.31226	0.456534	-0.0425745	0.216943	-0.762631	1.25265	1.02926	0.321783	0	0	0.447062	-0.721444	1.5708	1.25174	0.953388	0	0
120.07	2.54809	1.24468	-0.732665	-0.938066	0.307542	0.899803	0.0458048	0.382695	-0.0994708	0.403931	-0.211744	0	0	-0.176754	0.493028	-0.698132	0.209973	0.397384	0	0	-0.320405	0.440994	-0.0477341	0.212265	-0.753782	1.23732	1.02227	0.332588	0	0	0.439988	-0.731371	1.5708	1.24453	0.953388	0	0
120.08	2.5869	1.25083	-0.77333	-0.937899	0.316876	0.902593	0.0198963	0.36969	-0.11327	0.390086	-0.210222	0	0	-0.187507	0.498568	-0.698132	0.228181	0.397384	0	0	-0.327945	0.421773	-0.0567739	0.211403	-0.740149	1.22452	1.01037	0.351999	0	0	0.429692	-0.74402	1.5708	1.23583	0.953388	0	0
120.09	2.62062	1.25329	-0.813153	-0.937854	0.326174	0.905003	-0.00780016	0.360632	-0.121599	0.376131	-0.208444	0	0	-0.195046	0.502477	-0.698132	0.249309	0.397384	0	0	-0.334553	0.404752	-0.069383	0.222754	-0.726816	1.22872	0.998258	0.367959	0	0	0.413413	-0.760824	1.5708	1.22737	0.953388	0	0
120.1	2.66821	1.26344	-0.86767	-0.937007	0.335443	0.907972	-0.0305782	0.343342	-0.127709	0.363374	-0.20717	0	0	-0.194779	0.50993	-0.698132	0.278157	0.397384	0	0	-0.322512	0.378952	-0.119017	0.278167	-0.687649	1.30031	0.954827	0.371717	0	0	0.357466	-0.78322	1.5708	1.2099	0.953388	0	0
120.11	2.71572	1.27023	-0.924832	-0.936315	0.344384	0.910843	-0.0534981	0.327482	-0.131327	0.352952	-0.206752	0	0	-0.191454	0.515731	-0.698132	0.310422	0.397384	0	0	-0.330154	0.355892	-0.124681	0.282728	-0.674377	1.29304	0.942179	0.377383	0	0	0.346995	-0.792228	1.5708	1.19935	0.953388	0	0
120.12	2.76966	1.2758	-0.98973	-0.935431	0.353118	0.913868	-0.0768831	0.310134	-0.135546	0.343119	-0.207243	0	0	-0.185286	0.521201	-0.698132	0.346559	0.397384	0	0	-0.339545	0.331175	-0.12877	0.284611	-0.660444	1.27843	0.928845	0.390562	0	0	0.339679	-0.80097	1.5708	1.18806	0.953388	0	0
120.13	2.82523	1.28133	-1.05799	-0.93424	0.36164	0.916823	-0.0980549	0.291461	-0.143102	0.334192	-0.207734	0	0	-0.174153	0.523599	-0.698132	0.386772	0.397384	0	0	-0.34835	0.305114	-0.131684	0.284218	-0.645165	1.25689	0.914013	0.412214	0	0	0.334584	-0.80943	1.5708	1.17426	0.953388	0	0
120.14	2.8802	1.28562	-1.12646	-0.932932	0.369866	0.919658	-0.118247	0.272881	-0.154153	0.325626	-0.206354	0	0	-0.16073	0.523599	-0.698132	0.428516	0.397384	0	0	-0.368737	0.27896	-0.107584	0.251772	-0.645439	1.18056	0.919355	0.448203	0	0	0.363686	-0.811794	1.5708	1.16263	0.953388	0	0
120.15	2.94081	1.2968	-1.19908	-0.931157	0.378407	0.92237	-0.130768	0.251023	-0.1638	0.317682	-0.206004	0	0	-0.138084	0.523599	-0.674263	0.476629	0.397384	0	0	-0.350587	0.253425	-0.148057	0.290125	-0.607646	1.22219	0.875412	0.46812	0	0	0.296312	-0.80026	1.5708	1.1333	0.953388	0	0
120.16	2.98852	1.30899	-1.25278	-0.929642	0.38629	0.924368	-0.137558	0.234958	-0.170613	0.310126	-0.206895	0	0	-0.0989834	0.523599	-0.613474	0.522945	0.397384	0	0	-0.345105	0.234443	-0.166034	0.300144	-0.588982	1.21426	0.858355	0.493885	0	0	0.182228	-0.501519	1.0036	0.716726	1.5708	0	0
120.17	-2.97034	1.25874	-1.52658	-0.930482	0.387491	0.934741	-0.213502	0.14651	-0.289298	0.306571	-0.209664	0	0	-0.273332	-0.475763	-0.698132	1.30648	0.397384	0	0	-0.427429	0.150146	-0.23443	0.301528	-0.534696	1.15053	0.81935	0.524299	0	0	0.206649	-0.535067	0.994507	0.727538	1.5708	0	0
120.18	2.989	1.2972	-1.25005	-0.930583	0.402638	0.924994	-0.184214	0.239922	-0.223254	0.282246	-0.210059	0	0	-0.0832788	-0.597843	-0.698132	1.46746	0.397384	0	0	-0.355613	0.230514	-0.202896	0.314723	-0.57768	1.1874	0.860494	0.5347	0	0	0.163829	-0.51556	0.964589	0.734489	1.5708	0	0
120.19	2.88287	1.32397	-1.18197	-0.92762	0.41474	0.921675	-0.16838	0.257003	-0.1795	0.276185	-0.200969	0	0	-0.0132464	-0.604309	-0.698132	1.49266	0.397384	0	0	-0.301974	0.230266	-0.214572	0.14794	-0.396045	0.585543	0.722599	1.18916	0	0	0.029873	-0.468665	0.678074	0.733162	1.5708	0	0
120.2	3.10537	1.30675	-1.41491	-0.92311	0.419395	0.929093	-0.215073	0.204073	-0.195612	0.258793	-0.279442	0	0	-0.0623215	-0.278515	0.0298023	1.14887	0.3108	0	0	-0.366253	0.154392	-0.197172	0.156128	-0.367697	0.551454	0.705628	1.21479	0	0	0.0468468	-0.473573	0.639517	0.73891	1.5708	0	0
120.21	2.95631	1.33518	-1.32017	-0.922332	0.435826	0.924491	-0.224279	0.22868	-0.1272	0.209733	-0.2922	0	0	-0.147056	-0.300768	-0.156124	0.880972	0.3108	0	0	-0.303189	0.189972	-0.175919	0.14722	-0.394078	0.563489	0.730589	1.22541	0	0	0.027554	-0.456587	0.672109	0.702536	1.5708	0	0
120.22	3.10978	1.3392	-1.4699	-0.918802	0.439688	0.928683	-0.214742	0.191697	-0.15165	0.252773	-0.237	0	0	0.00568842	-0.252233	0.0258987	1.12744	0.3108	0	0	-0.323904	0.145643	-0.181745	0.162257	-0.369672	0.547493	0.712046	1.22122	0	0	0.0573921	-0.466336	0.690033	0.678586	1.5708	0	0
120.23	3.11863	1.33492	-1.53871	-0.911442	0.452307	0.930913	-0.247946	0.184012	-0.0992101	0.234408	-0.228251	0	0	0.0195569	-0.141578	0.177812	1.1666	0.3108	0	0	-0.324904	0.128351	-0.139516	0.163119	-0.367516	0.548794	0.711166	1.22083	0	0	0.058559	-0.445187	0.692057	0.625674	1.5708	0	0
120.24	-3.13018	1.33294	-1.5936	-0.908904	0.460867	0.932045	-0.264775	0.170904	-0.105278	0.225504	-0.28952	0	0	0.0457126	-0.164374	0.106867	1.09672	-0.207057	0	0	-0.331625	0.113206	-0.130714	0.169467	-0.365933	0.546291	0.716486	1.2151	0	0	0.150968	-0.481297	0.973515	0.595407	1.5708	0	0
120.25	-2.80587	1.24974	-1.91947	-0.91024	0.463199	0.944673	-0.335283	0.0435733	-0.18588	0.236842	-0.294746	0	0	-0.0825837	-0.113331	-0.105766	0.903007	-0.200366	0	0	-0.436326	-0.00343449	-0.141426	0.185567	-0.348897	0.514229	0.714881	1.2127	0	0	0.233454	-0.460834	1.04642	0.512392	1.5708	0	0
120.26	3.07829	1.33082	-1.57033	-0.905908	0.480567	0.929913	-0.300956	0.174659	-0.0877307	0.215991	-0.283999	0	0	0.0151544	-0.186303	-0.0641737	0.864257	-0.277875	0	0	-0.336679	0.115301	-0.0929914	0.162469	-0.386892	0.529993	0.759793	1.21419	0	0	0.0568249	-0.437432	0.674242	0.618376	1.5708	0	0
120.27	-3.07461	1.24917	-1.79969	-0.914589	0.503233	0.936513	-0.436501	0.0522165	-0.125218	0.167476	-0.305627	0	0	-0.19656	-0.10035	-0.0481862	0.629201	-0.265693	0	0	-0.389786	0.0713421	-0.0467382	0.159633	-0.454753	0.576368	0.816149	1.17946	0	0	0.0995416	-0.43035	0.913802	0.592433	1.5708	0	0
120.28	3.05162	1.2953	-1.56888	-0.903208	0.495454	0.930046	-0.369324	0.174687	-0.0903068	0.199648	-0.284378	0	0	0.0275063	-0.227492	-0.144111	0.818622	-0.317071	0	0	-0.402187	0.0870154	-0.0818667	0.186759	-0.397435	0.552941	0.790075	1.16494	0	0	0.0410145	-0.565376	1.05558	1.02886	0	0	0
120.29	2.94895	1.35073	-1.49443	-0.901653	0.50797	0.925052	-0.322556	0.189324	-0.0528128	0.205443	-0.273461	0	0	0.306381	-0.307934	-0.137796	1.10392	-0.452021	0	0	-0.307357	0.136429	-0.0904611	0.204154	-0.401981	0.595027	0.76947	1.16526	0	0	0.156552	-0.503822	1.36255	0.76163	0.0591783	0	0
120.3	2.87494	1.39476	-1.4462	-0.899306	0.51936	0.921965	-0.287647	0.191978	-0.0225588	0.208801	-0.2686	0	0	0.394004	-0.354717	-0.164594	1.10681	-0.546618	0	0	-0.22743	0.170239	-0.0971735	0.219514	-0.401681	0.632038	0.744475	1.16677	0	0	0.209647	-0.540375	1.56568	0.758111	0.367673	0	0
120.31	-3.02948	1.286	-1.81338	-0.903416	0.521376	0.934617	-0.401989	0.080825	-0.128466	0.205688	-0.279952	0	0	-0.213594	-0.114995	-0.237288	0.172224	-0.426634	0	0	-0.392567	0.0439392	-0.104281	0.237287	-0.391393	0.595965	0.761315	1.15918	0	0	0.245835	-0.432115	1.19984	0.44565	1.5708	0	0
120.32	2.87324	1.36152	-1.4416	-0.897736	0.532372	0.921675	-0.347224	0.198264	-0.0408383	0.194326	-0.270915	0	0	-0.102943	-0.223716	-0.366084	0.187607	-0.35364	0	0	-0.297596	0.146009	-0.10751	0.248205	-0.397859	0.640252	0.761551	1.14931	0	0	0.165021	-0.456303	1.06397	0.515408	1.5708	0	0
120.33	2.7954	1.3528	-1.36692	-0.897036	0.540555	0.919169	-0.383798	0.218064	-0.0130162	0.148316	-0.288678	0	0	0.12572	-0.309613	-0.299204	0.542946	-0.348061	0	0	-0.311178	0.156301	-0.115402	0.26502	-0.402786	0.662394	0.771954	1.1327	0	0	0.200128	-0.422876	1.011	0.464695	1.5708	0	0
120.34	2.73154	1.36428	-1.31246	-0.896273	0.550199	0.916665	-0.366651	0.223087	-0.0295952	0.184414	-0.267145	0	0	0.191653	-0.332701	-0.436506	0.584385	-0.370415	0	0	-0.285819	0.172401	-0.119233	0.277804	-0.406729	0.688945	0.764207	1.11572	0	0	0.212864	-0.431705	1.1782	0.45817	1.5708	0	0
120.35	2.6397	1.36939	-1.23016	-0.89508	0.559897	0.91369	-0.387697	0.23766	0.0082358	0.141093	-0.28103	0	0	0.240277	-0.345426	-0.424993	0.584467	-0.367291	0	0	-0.27355	0.1883	-0.119594	0.285674	-0.412208	0.703032	0.767903	1.11037	0	0	0.211241	-0.431398	1.19609	0.45407	1.5708	0	0
120.36	2.58572	1.36602	-1.16973	-0.90128	0.571742	0.910451	-0.384551	0.236299	-0.0608999	0.178909	-0.261788	0	0	0.255078	-0.318825	-0.361315	0.532245	-0.329337	0	0	-0.271131	0.208775	-0.139528	0.298154	-0.438497	0.730869	0.791552	1.08918	0	0	0.0938684	-0.410932	0.81843	0.519756	1.5708	0	0
120.37	2.64252	1.35695	-1.24414	-0.893965	0.578564	0.911623	-0.414376	0.230838	-0.0289318	0.170574	-0.263894	0	0	0.238723	-0.304072	-0.223457	0.463215	-0.336027	0	0	-0.294247	0.185077	-0.127241	0.309214	-0.417507	0.73468	0.772463	1.08466	0	0	0.100204	-0.42488	0.816112	0.522304	1.5708	0	0
